<svg width="1024" height="1024" viewBox="0 0 1024 1024" fill="none" xmlns="http://www.w3.org/2000/svg">
<rect width="1024" height="1024" rx="512" fill="white"/>
<path fill-rule="evenodd" clip-rule="evenodd" d="M604.226 114.66C729.548 114.66 842.237 168.147 920.224 253.296C834.56 123.093 686.109 37 517.324 37C252.048 37 37 249.665 37 512C37 774.335 252.048 987 517.324 987C591.549 987 661.843 970.35 724.593 940.621C686.422 951.713 646.027 957.663 604.226 957.663C368.828 957.663 178 768.951 178 536.162C178 303.373 368.828 114.66 604.226 114.66ZM403.675 870.967C288.202 803.168 210.805 678.608 210.805 536.171C210.805 321.289 386.954 147.093 604.245 147.093C640.537 147.093 675.681 151.952 709.049 161.048C709.056 161.049 709.063 161.05 709.07 161.05C675.691 151.946 640.533 147.083 604.226 147.083C386.936 147.083 210.787 321.279 210.787 536.162C210.787 678.606 288.192 803.171 403.675 870.967Z" fill="#7DBE3B"/>
<path fill-rule="evenodd" clip-rule="evenodd" d="M987 626.61C945.773 797.877 790.05 925.25 604.245 925.25C386.954 925.25 210.805 751.053 210.805 536.171C210.805 321.289 386.954 147.093 604.245 147.093C640.536 147.093 675.68 151.952 709.047 161.048C700.94 160.464 692.753 160.166 684.495 160.166C500.703 160.166 351.711 307.507 351.711 489.262C351.711 671.016 500.703 818.357 684.495 818.357C818.712 818.357 934.371 739.782 987 626.61Z" fill="#448C0D"/>
</svg>
